<svg xmlns="http://www.w3.org/2000/svg" width="1321" height="822" viewBox="0 0 1321 822">
  <defs>
    <style>
      .cls-1 {
        fill: #ac000a;
      }

      .cls-1, .cls-2 {
        fill-rule: evenodd;
      }

      .cls-2 {
        fill: #131313;
      }
    </style>
  </defs>
  <path id="_AC000A" data-name="#AC000A" class="cls-1" d="M1129.09,419.225a217.618,217.618,0,0,0,17.52-85.811c0-120.523-97.7-218.227-218.223-218.227S710.16,212.891,710.16,333.414s97.7,218.227,218.227,218.227a218.908,218.908,0,0,0,48.3-5.374l87.024,91.967a333.677,333.677,0,0,1-351.484-50.951l-10.567-21.845L595.4,315.91C604.506,139.9,750.106-.022,928.387-0.022c184.153,0,333.443,149.286,333.443,333.44a331.849,331.849,0,0,1-47.39,171.4Zm-21.06,35.06,211.98,212.586H1142.9L941.738,454.285H1108.03Z"/>
  <path id="_FFFFFF" data-name="#FFFFFF" class="cls-2" d="M1316.93,797.61a34.688,34.688,0,0,1-10.28,12.766,48.38,48.38,0,0,1-15.64,7.922,67.528,67.528,0,0,1-19.84,2.749,61.026,61.026,0,0,1-20.16-3.273,50.151,50.151,0,0,1-16.5-9.362,42.815,42.815,0,0,1-11.07-14.861,47.23,47.23,0,0,1-3.99-19.771,42.7,42.7,0,0,1,4.06-18.527,45.854,45.854,0,0,1,11.26-14.927,52.2,52.2,0,0,1,16.96-9.886,61.183,61.183,0,0,1,21.01-3.535,63.7,63.7,0,0,1,16.57,2.1,54.615,54.615,0,0,1,13.74,5.63,39.471,39.471,0,0,1,9.63,7.726l-10.74,11.653a52.543,52.543,0,0,0-8.64-5.892,46.774,46.774,0,0,0-9.76-3.928,42.3,42.3,0,0,0-24.87.916,35,35,0,0,0-11.26,6.547,30.278,30.278,0,0,0-7.47,9.82,28.22,28.22,0,0,0-2.68,12.308,30.582,30.582,0,0,0,2.81,13.421,29.142,29.142,0,0,0,7.73,9.885,33.343,33.343,0,0,0,11.32,6.089,44.011,44.011,0,0,0,13.36,2.029,47.588,47.588,0,0,0,11.98-1.44,33.664,33.664,0,0,0,9.69-4.059,21.761,21.761,0,0,0,6.48-6.088,12.577,12.577,0,0,0,2.22-6.744h-31.02V771.947h48.05q0.255,1.7.39,3.339c0.09,1.092.15,2.074,0.2,2.946s0.06,1.571.06,2.1A39.868,39.868,0,0,1,1316.93,797.61Zm-244.14-45.123c0.13,1.467.27,2.87,0.41,4.206q0.39,3.864.72,7.529t0.59,7q0.255,3.339.39,6.612c0.08,2.183.13,4.321,0.13,6.416v35.483h-16.89V728.084h16.1l60.78,68.683c-0.21-1.581-.39-3.176-0.55-4.787q-0.39-4.189-.72-8.642c-0.21-2.966-.39-5.978-0.52-9.034s-0.22-6.132-.26-9.231-0.07-6.263-.07-9.493v-27.5h16.89v91.654h-16.36ZM945.011,727.552h17.022V819.2H945.011V727.552ZM826.122,819.738H809.1V743.8H777.676V728.084H858.2V743.8H826.122v75.942ZM643.206,728.084h70.181v15.45H659.966v21.735h44.6v15.189h-44.6v23.83h53.945v15.45h-70.7V728.084Zm-69.265,91.654H552.6l-34.435-43.946-18.2,15.531v28.415H482.942V728.084h17.021v44.271l51.458-44.271h22.651l-43.838,37.409Zm-182.261,0-22.312-33.257H345.853v33.257H329.224V728.084h47.4a32.654,32.654,0,0,1,15.713,3.731A29.178,29.178,0,0,1,403.4,742.094a27.419,27.419,0,0,1,4.124,14.926,26.975,26.975,0,0,1-4.321,14.861,31.151,31.151,0,0,1-11.522,10.672,31.751,31.751,0,0,1-3.718,1.725l24.144,35.591Zm-1.7-62.456a11.866,11.866,0,0,0-2.226-7.136,15.81,15.81,0,0,0-5.958-4.91,18.913,18.913,0,0,0-8.445-1.833h-27.5v28.282H374.92a15.311,15.311,0,0,0,7.594-1.9,14.712,14.712,0,0,0,5.434-5.172A13.624,13.624,0,0,0,389.978,757.282ZM237.511,799.574H191.947l-8.978,20.164H165.686l40.852-91.654H223.69l40.721,91.654H246.473Zm-16.178-36.4q-1.049-2.092-2.16-4.975t-2.291-5.958q-1.116-2.913-2.114-5.71-1.041,2.922-2.207,5.907-1.179,3.014-2.357,5.761t-2.226,5.368l-9.444,21.211h32.4ZM83.981,755.85L55.046,819.36H46.4L18.009,755.94l-0.018,63.8H1.1V728.084h24.1l25.812,58.941L77.03,728.084h23.843v91.654H83.983V755.85Zm473.428-88.975L356.5,195.08,247.925,450.047h182.65L479.528,565H198.972L155.591,666.875H0.145L284.14-.031H428.86l284,666.906H557.409Z"/>
</svg>
